# xmcd
#
# Track frame offsets: 
#        150
#        11816
#        23375
#        36588
#        52613
#        82175
#        97945
#        111883
#        131552
#        148584
#        171583
#        188317
#        203253
#        215656
#
# Disc length: 3191 seconds
#
# Revision: 1
# Processed by: cddbd v1.5.2PL0 Copyright (c) Steve Scherf et al.
# Submitted via: ExactAudioCopy v0.99pb3
#
DISCID=b50c750e
DTITLE=First Choice - Philly Golden Classics
DYEAR=1988
DGENRE=Soul
TTITLE0=Armed And Extremely Dangerous
TTITLE1=Gonna Keep On Lovin' Him
TTITLE2=One Step Away
TTITLE3=This Little Woman
TTITLE4=The Player
TTITLE5=Wake Up To Me
TTITLE6=Love Freeze
TTITLE7=All I Need Is Time
TTITLE8=Guess What Mary Jones Did
TTITLE9=Hustler Bill
TTITLE10=Love And Happiness
TTITLE11=Runnin' Out Of Fools
TTITLE12=This Is The House
TTITLE13=You Took The Words Right Out Of My Mouth
EXTD=Philly Golden Classics
EXTT0=
EXTT1=
EXTT2=
EXTT3=
EXTT4=
EXTT5=
EXTT6=
EXTT7=
EXTT8=
EXTT9=
EXTT10=
EXTT11=
EXTT12=
EXTT13=
PLAYORDER=
